<svg xmlns="http://www.w3.org/2000/svg" viewBox="0 0 1200 420" role="img" aria-labelledby="title desc"><title id="title">CERAI logo — Option 1A</title><desc id="desc">Muted blue-gray CERAI medical technology logo with corneal ectasia topography motif and terracotta AI accents.</desc><rect width="1200" height="420" rx="18" fill="#070b0f"/><g transform="translate(55 48)"><path d="M238 56 A138 138 0 1 0 238 284" fill="none" stroke="#8d9baa" stroke-width="34" stroke-linecap="butt"/><g fill="none" stroke="#aab4bd" stroke-width="2" opacity=".8"><path d="M214 95c-50-29-111-10-130 40-18 48 4 102 50 123 37 17 82 10 111-18"/><path d="M208 116c-39-23-88-9-105 30-16 38 1 82 38 100 31 15 68 9 92-13"/><path d="M204 138c-29-17-66-6-79 23-12 29 1 62 29 76 23 11 52 7 70-10"/><path d="M199 160c-20-12-45-5-54 15-8 20 1 43 20 52 16 8 35 5 48-7"/></g><g opacity=".95"><ellipse cx="197" cy="232" rx="52" ry="43" fill="#8d735f"/><ellipse cx="203" cy="237" rx="40" ry="34" fill="#b98969"/><ellipse cx="208" cy="241" rx="29" ry="25" fill="#c76c52"/><ellipse cx="211" cy="244" rx="17" ry="15" fill="#713b3a"/></g><g fill="#8d9baa"><circle cx="253" cy="88" r="5"/><circle cx="263" cy="102" r="5"/><circle cx="271" cy="118" r="5"/><circle cx="277" cy="136" r="5"/><circle cx="281" cy="155" r="5"/><circle cx="282" cy="175" r="5"/><circle cx="281" cy="195" r="5"/><circle cx="277" cy="215" r="5"/><circle cx="271" cy="234" r="5"/><circle cx="263" cy="251" r="5"/></g></g><g font-family="Arial,Helvetica,sans-serif" font-weight="700"><text x="355" y="225" font-size="154" letter-spacing="4" fill="#96a3b0">CER</text><text x="735" y="225" font-size="154" letter-spacing="4" fill="#b85f49">AI</text></g><line x1="355" y1="264" x2="925" y2="264" stroke="#82909d" stroke-width="2"/><circle cx="650" cy="264" r="10" fill="#b85f49"/><g font-family="Arial,Helvetica,sans-serif" font-size="43" font-weight="400"><text x="355" y="326" fill="#96a3b0">Corneal Refractive </text><text x="704" y="326" fill="#b85f49">A</text><text x="733" y="326" fill="#96a3b0">nalysis </text><text x="876" y="326" fill="#b85f49">I</text><text x="888" y="326" fill="#96a3b0">ntelligence</text></g></svg>